<?xml version="1.0" encoding="UTF-8" standalone="no"?>
<!DOCTYPE svg PUBLIC "-//W3C//DTD SVG 1.1//EN"
 "http://www.w3.org/Graphics/SVG/1.1/DTD/svg11.dtd">
<!-- Generated by graphviz version 2.26.3 (20100126.1600)
 -->
<!-- Title: G Pages: 1 -->
<svg width="682pt" height="348pt"
 viewBox="0.00 0.00 682.00 348.00" xmlns="http://www.w3.org/2000/svg" xmlns:xlink="http://www.w3.org/1999/xlink">
<g id="graph1" class="graph" transform="scale(1 1) rotate(0) translate(4 344)">
<title>G</title>
<polygon fill="white" stroke="white" points="-4,5 -4,-344 679,-344 679,5 -4,5"/>
<g id="graph2" class="cluster"><title>cluster_0</title>
<polygon fill="none" stroke="black" points="8,-140 8,-220 666,-220 666,-140 8,-140"/>
<text text-anchor="middle" x="337" y="-203.4" font-family="Times Roman,serif" font-size="14.00">Redis</text>
</g>
<!-- redis_raw -->
<g id="node2" class="node"><title>redis_raw</title>
<ellipse fill="none" stroke="black" cx="435" cy="-167" rx="58.8978" ry="18.3848"/>
<text text-anchor="middle" x="435" y="-163.4" font-family="Times Roman,serif" font-size="14.00">redis_raw</text>
</g>
<!-- holmes -->
<g id="node10" class="node"><title>holmes</title>
<ellipse fill="none" stroke="black" cx="278" cy="-93" rx="45.9619" ry="18.3848"/>
<text text-anchor="middle" x="278" y="-89.4" font-family="Times Roman,serif" font-size="14.00">holmes</text>
</g>
<!-- redis_raw&#45;&gt;holmes -->
<g id="edge6" class="edge"><title>redis_raw&#45;&gt;holmes</title>
<path fill="none" stroke="black" d="M402.088,-151.487C377.342,-139.824 343.348,-123.801 317.197,-111.475"/>
<polygon fill="black" stroke="black" points="318.486,-108.213 307.949,-107.116 315.502,-114.545 318.486,-108.213"/>
</g>
<!-- redis_blacklist -->
<g id="node3" class="node"><title>redis_blacklist</title>
<ellipse fill="none" stroke="black" cx="278" cy="-167" rx="79.9031" ry="18.3848"/>
<text text-anchor="middle" x="278" y="-163.4" font-family="Times Roman,serif" font-size="14.00">redis_blacklist</text>
</g>
<!-- redis_blacklist&#45;&gt;holmes -->
<g id="edge12" class="edge"><title>redis_blacklist&#45;&gt;holmes</title>
<path fill="none" stroke="black" d="M272.048,-148.327C271.277,-140.202 271.065,-130.501 271.411,-121.507"/>
<polygon fill="black" stroke="black" points="274.911,-121.619 272.073,-111.411 267.926,-121.16 274.911,-121.619"/>
</g>
<!-- redis_whitelist -->
<g id="node4" class="node"><title>redis_whitelist</title>
<ellipse fill="none" stroke="black" cx="98" cy="-167" rx="82.2301" ry="18.3848"/>
<text text-anchor="middle" x="98" y="-163.4" font-family="Times Roman,serif" font-size="14.00">redis_whitelist</text>
</g>
<!-- redis_whitelist&#45;&gt;holmes -->
<g id="edge16" class="edge"><title>redis_whitelist&#45;&gt;holmes</title>
<path fill="none" stroke="black" d="M133.084,-150.208C161.781,-137.857 202.397,-121.171 233.388,-109.008"/>
<polygon fill="black" stroke="black" points="235.039,-112.122 243.085,-105.229 232.497,-105.599 235.039,-112.122"/>
</g>
<!-- redis_output -->
<g id="node5" class="node"><title>redis_output</title>
<ellipse fill="none" stroke="black" cx="585" cy="-167" rx="73.0388" ry="18.3848"/>
<text text-anchor="middle" x="585" y="-163.4" font-family="Times Roman,serif" font-size="14.00">redis_output</text>
</g>
<!-- printer -->
<g id="node12" class="node"><title>printer</title>
<ellipse fill="none" stroke="black" cx="585" cy="-93" rx="44.7575" ry="18.3848"/>
<text text-anchor="middle" x="585" y="-89.4" font-family="Times Roman,serif" font-size="14.00">printer</text>
</g>
<!-- redis_output&#45;&gt;printer -->
<g id="edge9" class="edge"><title>redis_output&#45;&gt;printer</title>
<path fill="none" stroke="black" d="M585,-148.327C585,-140.264 585,-130.648 585,-121.711"/>
<polygon fill="black" stroke="black" points="588.5,-121.667 585,-111.667 581.5,-121.667 588.5,-121.667"/>
</g>
<!-- access log -->
<g id="node6" class="node"><title>access log</title>
<ellipse fill="none" stroke="black" cx="435" cy="-321" rx="60.1041" ry="18.3848"/>
<text text-anchor="middle" x="435" y="-317.4" font-family="Times Roman,serif" font-size="14.00">access log</text>
</g>
<!-- fetcher -->
<g id="node8" class="node"><title>fetcher</title>
<ellipse fill="none" stroke="black" cx="435" cy="-247" rx="45.9619" ry="18.3848"/>
<text text-anchor="middle" x="435" y="-243.4" font-family="Times Roman,serif" font-size="14.00">fetcher</text>
</g>
<!-- access log&#45;&gt;fetcher -->
<g id="edge3" class="edge"><title>access log&#45;&gt;fetcher</title>
<path fill="none" stroke="black" d="M435,-302.327C435,-294.264 435,-284.648 435,-275.711"/>
<polygon fill="black" stroke="black" points="438.5,-275.667 435,-265.667 431.5,-275.667 438.5,-275.667"/>
</g>
<!-- fetcher&#45;&gt;redis_raw -->
<g id="edge4" class="edge"><title>fetcher&#45;&gt;redis_raw</title>
<path fill="none" stroke="black" d="M435,-228.445C435,-218.821 435,-206.846 435,-196.03"/>
<polygon fill="black" stroke="black" points="438.5,-195.731 435,-185.731 431.5,-195.731 438.5,-195.731"/>
</g>
<!-- holmes&#45;&gt;redis_blacklist -->
<g id="edge14" class="edge"><title>holmes&#45;&gt;redis_blacklist</title>
<path fill="none" stroke="black" d="M283.927,-111.411C284.71,-119.501 284.934,-129.193 284.6,-138.202"/>
<polygon fill="black" stroke="black" points="281.098,-138.124 283.952,-148.327 288.084,-138.571 281.098,-138.124"/>
</g>
<!-- holmes&#45;&gt;redis_whitelist -->
<g id="edge18" class="edge"><title>holmes&#45;&gt;redis_whitelist</title>
<path fill="none" stroke="black" d="M248.695,-107.293C222.377,-118.73 183.262,-134.888 151.432,-147.512"/>
<polygon fill="black" stroke="black" points="149.828,-144.382 141.809,-151.307 152.396,-150.893 149.828,-144.382"/>
</g>
<!-- holmes&#45;&gt;redis_output -->
<g id="edge7" class="edge"><title>holmes&#45;&gt;redis_output</title>
<path fill="none" stroke="black" d="M320.215,-100.355C365.681,-108.616 439.981,-123.1 503,-140 512.663,-142.591 522.862,-145.667 532.66,-148.798"/>
<polygon fill="black" stroke="black" points="531.698,-152.166 542.29,-151.932 533.864,-145.509 531.698,-152.166"/>
</g>
<!-- console -->
<g id="node13" class="node"><title>console</title>
<ellipse fill="none" stroke="black" cx="585" cy="-19" rx="48.0833" ry="18.3848"/>
<text text-anchor="middle" x="585" y="-15.4" font-family="Times Roman,serif" font-size="14.00">console</text>
</g>
<!-- printer&#45;&gt;console -->
<g id="edge10" class="edge"><title>printer&#45;&gt;console</title>
<path fill="none" stroke="black" d="M585,-74.3267C585,-66.2639 585,-56.6477 585,-47.7115"/>
<polygon fill="black" stroke="black" points="588.5,-47.6673 585,-37.6674 581.5,-47.6674 588.5,-47.6673"/>
</g>
</g>
</svg>
